<?xml version="1.0" encoding="utf-8"?>
<!-- Generator: Adobe Illustrator 24.1.0, SVG Export Plug-In . SVG Version: 6.00 Build 0)  -->
<svg version="1.1" id="Layer_1" xmlns="http://www.w3.org/2000/svg" xmlns:xlink="http://www.w3.org/1999/xlink" x="0px" y="0px"
	 viewBox="0 0 2273.9 836.1" style="enable-background:new 0 0 2273.9 836.1;" xml:space="preserve">
<style type="text/css">
	.st0{fill:#EEEEEE;}
	.st1{fill:#00ADB5;}
	.st2{enable-background:new    ;}
</style>
<rect x="72" class="st0" width="144" height="144"/>
<polygon class="st0" points="72,216 0,216 0,288 72,288 72,576 0,576 0,648 144,648 144,576 216,576 216,216 "/>
<rect x="144" class="st1" width="72" height="72"/>
<g class="st2">
	<path class="st0" d="M424.6,385.5c0-19.1-5.4-28.6-16.3-28.6c-3,0-5.8,0.3-8.4,1c-5.6,1-10.4,1.5-14.3,1.5c-6.2,0-11.6-2-16-6.2
		c-4.4-4.1-6.7-9.4-6.7-16c0-15.4,9.5-23.2,28.6-23.2c1,0,2.3,0,3.9,0c1.6,0,3.1,0.2,4.4,0.5l24.6,3.5c4.6,0.7,9.3,1.2,14,1.5
		c4.8,0.3,9.4,0.5,14,0.5c4.3,0,9.1-0.2,14.5-0.7c5.4-0.5,10.9-1.1,16.5-1.7l21.2-3c1.3-0.3,2.7-0.5,4.2-0.5c1.5,0,2.7,0,3.7,0
		c19.4,0,29.1,7.7,29.1,23.2c0,6.6-2.3,11.9-6.9,16c-4.6,4.1-9.9,6.2-15.8,6.2c-4.6,0-9.4-0.5-14.3-1.5c-3.3-0.7-6.2-1-8.9-1
		c-10.5,0-15.8,9.5-15.8,28.6v189.8c0,19.1,5.3,28.6,15.8,28.6c0.7,0,1.4,0,2.2,0c0.8,0,2-0.2,3.7-0.5h3.5h-0.5
		c5.9-1,10.7-1.5,14.3-1.5c15.1,0,22.7,7.2,22.7,21.7c0,15.8-9.7,23.7-29.1,23.7h-4.4c-0.7-0.3-1.6-0.5-3-0.5l-25.1-3.9
		c-4.3-0.7-8.5-1.1-12.6-1.5c-4.1-0.3-8.1-0.5-12.1-0.5c-6.6,0-12.7,0.2-18.2,0.7c-5.6,0.5-11,1.1-16.3,1.7l-21.7,3.5
		c-1.3,0-2.5,0.2-3.5,0.5h-4.9c-18.7,0-28.1-7.9-28.1-23.7c0-14.5,7.6-21.7,22.7-21.7c0.3,0,0.8,0.1,1.5,0.2
		c0.7,0.2,1.5,0.2,2.5,0.2s2.3,0.1,3.9,0.2c1.6,0.2,3.5,0.2,5.4,0.2c1.6,0.3,3.2,0.6,4.7,0.7c1.5,0.2,3,0.2,4.7,0.2
		c10.8,0,16.3-9.5,16.3-28.6V385.5z"/>
</g>
<g class="st2">
	<path class="st0" d="M679.4,502.8c11.5-10.5,22.6-20.9,33.3-31.1c10.7-10.2,21.8-20.5,33.3-31.1l1-2c-1.3,0.3-2.8,0.7-4.4,1
		c-1.6,0.3-3.3,0.7-4.9,1c-2.6,0.7-5.3,1.2-7.9,1.5c-2.6,0.3-5.1,0.5-7.4,0.5c-16.1,0-24.2-7.2-24.2-21.7c0-15.1,9.5-22.7,28.6-22.7
		c1.6,0,3.4,0.1,5.2,0.2c1.8,0.2,3.9,0.4,6.2,0.7h0.5h2c10.8,1.3,20.3,2.2,28.3,2.7c8,0.5,14.7,0.7,20,0.7c2.3,0,4.8-0.1,7.6-0.2
		c2.8-0.2,5.2-0.2,7.1-0.2l20.7-3c1.6-0.3,3.3-0.6,4.9-0.7c1.6-0.2,3.5-0.2,5.4-0.2c20.4,0,30.6,7.4,30.6,22.2
		c0,14.5-7.9,21.7-23.7,21.7c-1.6,0-3.6-0.1-5.9-0.2c-2.3-0.2-4.3-0.4-5.9-0.7c-1.6-0.3-3.5-0.6-5.4-0.7c-2-0.2-3.3-0.2-3.9-0.2
		c-5.3,0-11.7,3.3-19.2,9.9l-48.8,44.9h0.5l-3,3c0,0.7,0.1,0.9,0.2,0.7c0.2-0.2,0.9,0.6,2.2,2.2c9.5,12.5,19.5,25.5,29.8,38.9
		c10.4,13.5,20.3,26.5,29.8,38.9l-0.5-0.5c14.5,17.7,23.3,26.6,26.6,26.6l5.9-0.5c1.6-0.3,3.2-0.7,4.7-1c1.5-0.3,3.4-0.5,5.7-0.5
		c16.4,0,24.6,7.1,24.6,21.2c0,15.1-9.7,22.7-29.1,22.7c-3,0-6.7-0.2-11.1-0.5c-4.4-0.3-9.5-0.8-15-1.5c-5.6-0.7-10.4-1.1-14.3-1.5
		c-3.9-0.3-7.2-0.5-9.9-0.5c-2.3,0-5.1,0.2-8.4,0.5c-3.3,0.3-7.4,0.8-12.3,1.5h0.5c-4.6,0.7-8.8,1.1-12.6,1.5
		c-3.8,0.3-7.1,0.5-10.1,0.5c-17.1,0-25.6-7.6-25.6-22.7c0-14.1,8.2-21.2,24.6-21.2c5.3,0,8.4,0.2,9.4,0.5c0.3,0,0.5,0.1,0.5,0.2
		c0,0.2,0.2,0.2,0.5,0.2l-5.4-8.9c-7.6-10.2-15.4-20.6-23.4-31.3c-8.1-10.7-15.9-21-23.4-30.8l0.5,0.5l-2-3l-1,2l-32,28.1v8.9
		c0,7.6,0,13.5,0,17.7c0,4.3,0.3,7.4,1,9.4c0.7,5.3,2.3,7.9,4.9,7.9c2.3,0,4.3-0.2,5.9-0.5c1.6-0.3,3.2-0.6,4.7-0.7
		c1.5-0.2,3.5-0.2,6.2-0.2c15.8,0,23.7,7.2,23.7,21.7c0,14.8-8.5,22.2-25.6,22.2c-3,0-6.6-0.2-10.8-0.5c-4.3-0.3-9-0.8-14.3-1.5
		c-5.6-0.7-10.3-1.2-14-1.7c-3.8-0.5-7-0.7-9.6-0.7c-3.3,0-6.9,0.2-10.8,0.5c-3.9,0.3-8.2,0.8-12.8,1.5c-5.9,0.7-10.8,1.2-14.8,1.7
		s-7.2,0.7-9.9,0.7c-17.4,0-26.1-7.4-26.1-22.2c0-14.5,8.5-21.7,25.6-21.7c1.6,0,3.3,0.1,4.9,0.2c1.6,0.2,3.3,0.4,4.9,0.7
		c2.6,0.7,4.7,1,6.2,1c1.5,0,2.5,0,3.2,0c2.3,0,3.8-3.8,4.4-11.3l1.5-18.2V387c-0.7-16.8-1.6-26.6-3-29.6c-0.7-1.6-1.3-2.5-2-2.5
		c-1,0-2.3,0.2-3.9,0.5c-0.7,0-1.2,0.1-1.7,0.2c-0.5,0.2-1.1,0.2-1.7,0.2c-2.6,1-5.1,1.6-7.4,1.7c-2.3,0.2-4.8,0.2-7.4,0.2
		c-15.5,0-23.2-6.9-23.2-20.7c0-15.1,8.7-22.7,26.1-22.7c3.6,0,6.6,0,8.9,0c2.3,0,4.1,0.2,5.4,0.5h-0.5c6.2,1,10.7,1.5,13.3,1.5
		c0.3,0,2-0.2,4.9-0.5c3-0.3,5.3-0.7,6.9-1c2.3-0.3,4.3-0.6,5.9-0.7c1.6-0.2,3.3-0.2,4.9-0.2h3.5c15.1,0,22.7,8.7,22.7,26.1V502.8z"
		/>
</g>
<g class="st2">
	<path class="st0" d="M1030.4,652.7c-35.2,0-63.3-12-84.3-36c-21-24-31.5-55.7-31.5-95.1c0-39.8,10.5-71.3,31.5-94.6
		c21-24.3,49.6-36.5,85.8-36.5c36.1,0,64.9,11.8,86.3,35.5c20.7,23.3,31.1,54.7,31.1,94.2c0,40.1-10.7,72-32,95.6
		C1095.8,640.4,1066.9,652.7,1030.4,652.7z M1032.9,434.3c-19.7,0-35.1,7.1-46.1,21.2c-11,14.1-17,34.3-18,60.6v5.4
		c0,27.3,5.4,48.6,16.3,64.1c10.8,15.5,26.1,23.2,45.8,23.2c20,0,35.9-7.6,47.6-22.9c11.7-15.3,17.5-36.9,17.5-64.8
		C1096,463.2,1074.9,434.3,1032.9,434.3z"/>
	<path class="st0" d="M1279.8,398.8c12.2,0,19.2,5.1,21.2,15.3c17.7-15.8,40.1-23.7,67-23.7c18.4,0,35.7,4.6,51.8,13.8h-0.5
		c17.1,9.9,28.4,21.5,34,35c4.9,11.5,7.4,26.1,7.4,43.9v88.7V595c0.3,5.3,1.5,8.5,3.5,9.9c1.6,0,3.8-0.1,6.4-0.2
		c2.6-0.2,4.8-0.4,6.4-0.7c1.6-0.3,3.1-0.6,4.4-0.7c1.3-0.2,3-0.2,4.9-0.2c5.9,0,11.2,2.1,15.8,6.2c4.6,4.1,6.9,9,6.9,14.5
		c0,6.6-2.6,12.1-7.9,16.5c-5.3,4.4-11.7,6.7-19.2,6.7c-1.6,0-4.2-0.1-7.6-0.2c-3.5-0.2-7-0.6-10.6-1.2c-4.9-0.7-10.3-1.2-16-1.7
		c-5.8-0.5-10.8-0.7-15-0.7c-3.3,0-6.7,0.1-10.1,0.2c-3.5,0.2-6.5,0.4-9.1,0.7c-7.2,1-13.1,1.7-17.7,2.2c-4.6,0.5-7.2,0.7-7.9,0.7
		c-17.7,0-26.6-7.7-26.6-23.2c0-13.8,7.9-20.7,23.7-20.7c1.3,0.3,2.6,0.5,3.9,0.5c1.3,0,2.5,0.1,3.7,0.2c1.1,0.2,2.4,0.2,3.7,0.2
		c1.6,0.3,3,0.6,3.9,0.7c1,0.2,1.8,0.2,2.5,0.2c1,0.3,1.6,0.5,2,0.5c2.3,0,3.6-6.2,3.9-18.7c0-3.9,0.2-8,0.5-12.1
		c0.3-4.1,0.5-8.1,0.5-12.1l0.5-28.1v-35.5c0-14.8-0.8-25.8-2.5-33c-1-4.9-2.8-9.4-5.4-13.6c-2.6-4.1-5.8-7.5-9.4-10.1v0.5
		c-9.5-6.6-19.6-9.9-30.1-9.9c-22,0-37.8,7.7-47.3,23.2c-6.6,11.2-9.9,30.9-9.9,59.2v62.1c0,11.2,0.4,18.7,1.2,22.7
		c0.8,3.9,2.2,5.9,4.2,5.9c0.3,0,1.3-0.2,3-0.5c1.6-0.3,3.5-0.7,5.4-1c2-0.7,3.9-1.1,5.7-1.5c1.8-0.3,4-0.5,6.7-0.5
		c15.1,0,22.7,7.4,22.7,22.2c0,14.8-8.9,22.2-26.6,22.2c-1.6,0-4.9-0.3-9.6-1c-4.8-0.7-10.1-1.3-16-2c-6.6-1-13.8-1.5-21.7-1.5
		c-3,0-6.5,0.2-10.6,0.5c-4.1,0.3-9,0.8-14.5,1.5l-10.8,1c-3,0.7-5.8,1.1-8.4,1.2c-2.6,0.2-4.3,0.2-4.9,0.2
		c-18.4,0-27.6-7.6-27.6-22.7c0-14.1,7.6-21.2,22.7-21.2c1.6,0,3,0.1,4.2,0.2c1.1,0.2,2.4,0.4,3.7,0.7c4.3,1,8.7,1.5,13.3,1.5
		c3.9,0,6.1-6.7,6.4-20.2c0-8.5,0.2-17.2,0.5-25.9c0.3-8.7,0.5-17.3,0.5-25.9v-56.7l-1-16.3c-0.7-7.2-1.3-12.4-2-15.5
		c-0.7-3.1-1.8-5-3.5-5.7c-0.7,0.3-2.1,0.6-4.4,0.7c-2.3,0.2-4.1,0.4-5.4,0.7c-2,0.3-3.8,0.6-5.4,0.7c-1.6,0.2-3.3,0.2-4.9,0.2
		c-16.4,0-24.6-7.2-24.6-21.7c0-14.5,9.5-21.7,28.6-21.7c1.3,0,2.4-0.1,3.2-0.2c0.8-0.2,1.9,0.1,3.2,0.7l16.3,2
		c1.6,0,3.5-0.1,5.7-0.2c2.1-0.2,4.2-0.4,6.2-0.7c2.6-0.3,4.8-0.6,6.7-0.7C1275,398.9,1277.2,398.8,1279.8,398.8z"/>
	<path class="st0" d="M1646.6,563.5c0,7.6,0,13.6,0,18s0.2,7.5,0.5,9.1c1,9.9,2.5,14.8,4.4,14.8c-0.3,0,0.5-0.2,2.5-0.5
		c2-0.3,4.4-0.8,7.4-1.5l-0.5,0.5c1-0.3,2.2-0.7,3.7-1c1.5-0.3,3.4-0.5,5.7-0.5c17.1,0,25.6,7.2,25.6,21.7c0,6.6-2.7,12-8.1,16.3
		c-5.4,4.3-12.2,6.4-20.5,6.4c-2.6,0-5.9-0.2-9.9-0.5c-3.9-0.3-8.5-0.8-13.8-1.5c-4.9-0.7-9.2-1.2-12.8-1.7
		c-3.6-0.5-6.6-0.7-8.9-0.7c-3.6,0-7.6,0.2-12.1,0.5c-4.4,0.3-9.1,0.8-14,1.5c-5.9,0.7-10.9,1.2-15,1.7c-4.1,0.5-7.5,0.7-10.1,0.7
		c-17.7,0-26.6-7.6-26.6-22.7c0-14.5,8-21.7,24.2-21.7c0.7,0,2.5,0.2,5.7,0.5c3.1,0.3,5.7,0.7,7.6,1c2.3,0.7,4.1,1,5.4,1
		c1.3,0,2.3,0,3,0c2.6,0,4.4-7.9,5.4-23.7V462.4c-1-15.4-3-23.2-5.9-23.2c-0.7,0-1.8,0.2-3.5,0.5c-1.6,0.3-3.6,0.8-5.9,1.5
		c-1.6,0.7-3.5,1.1-5.7,1.2c-2.1,0.2-3.9,0.2-5.2,0.2c-16.8,0-25.1-7.2-25.1-21.7c0-14.8,9.5-22.2,28.6-22.2c3.6,0,6.6,0,8.9,0
		c2.3,0,3.9,0.2,4.9,0.5c4.6,0.7,8.5,1.2,11.6,1.5c3.1,0.3,5.2,0.5,6.2,0.5c0.7,0,2-0.1,4.2-0.2c2.1-0.2,4.2-0.4,6.2-0.7l12.8-1.5
		c14.1,0,21.2,8.2,21.2,24.6v6.9c-0.3,1.3-0.5,2.4-0.5,3.2c0,0.8,0,1.4,0,1.7c-0.3,1-0.5,5.6-0.5,13.8c0,2.3-0.1,4.7-0.2,7.1
		c-0.2,2.5-0.2,5-0.2,7.6c-0.3,6.6-0.5,13.1-0.5,19.5s0,12.9,0,19.5V563.5z M1614.1,387c-9.5,0-17.6-3.1-24.2-9.4
		c-6.6-6.2-9.9-14-9.9-23.2c0-9.2,3.3-16.8,9.9-22.9c6.6-6.1,14.6-9.1,24.2-9.1c9.5,0,17.7,3,24.4,9.1c6.7,6.1,10.1,13.7,10.1,22.9
		c0,9.2-3.4,16.9-10.1,23.2C1631.7,383.9,1623.6,387,1614.1,387z"/>
	<path class="st0" d="M1875.8,362.3c0-3.6,0.8-7.1,2.5-10.4c-3.3-1.6-7.7-2.5-13.3-2.5c-10.5,0-19,3.8-25.4,11.3
		c-6.4,7.6-9.6,17.9-9.6,31.1v7.9h34.5c15.8,0,23.7,7.7,23.7,23.2c0,15.5-7.9,23.2-23.7,23.2H1830V598c0.3,4.6,1.8,6.9,4.4,6.9
		c-0.3,0,0.4-0.2,2.2-0.5c1.8-0.3,4.4-0.8,7.6-1.5c1.3,0,2.5-0.2,3.5-0.5c1.6-0.3,3.1-0.5,4.4-0.5c1.3,0,2.3,0,3,0
		c16.1,0,24.2,7.2,24.2,21.7c0,15.5-9,23.2-27.1,23.2c-3,0-6.6-0.2-10.8-0.5c-4.3-0.3-9-0.8-14.3-1.5c-5.6-0.7-10.2-1.1-13.8-1.5
		c-3.6-0.3-6.7-0.5-9.4-0.5c-8.9,0-16.9,0.5-24.2,1.5c-6.2,0.7-11.3,1.2-15.3,1.7c-3.9,0.5-6.9,0.7-8.9,0.7
		c-18.7,0-28.1-7.7-28.1-23.2c0-5.6,2.4-10.6,7.1-15c4.8-4.4,10.4-6.7,17-6.7c2.6,0,4.8,0.2,6.7,0.5c1.8,0.3,3.7,0.8,5.7,1.5
		c1.6,0.7,3.3,1,4.9,1c1.6,0,3,0,3.9,0c1.6,0,2.6-2,3-5.9c1.3-7.2,2.3-24.8,3-52.7c0-16.4,0.1-32.7,0.2-48.8
		c0.2-16.1,0.2-32.5,0.2-49.3c0-1.3-0.2-2-0.5-2h-23.2c-16.1,0-24.2-7.9-24.2-23.7c0-15.1,8.2-22.7,24.6-22.7h24.6v-7.9
		c0-26.6,7.1-47.1,21.4-61.4s34.8-21.4,61.4-21.4c22,0,39.7,4.6,53,13.8c13.3,9.2,20,21.4,20,36.5c0,8.5-2.9,15.6-8.6,21.2
		c-5.8,5.6-13.1,8.4-21.9,8.4c-8.5,0-15.7-2.5-21.4-7.6C1878.7,376.2,1875.8,369.9,1875.8,362.3z"/>
</g>
<g class="st2">
	<path class="st0" d="M2100.8,578.7c8.1-22.4,16.4-44.4,24.8-66.1c8.4-21.7,16.5-43.7,24.3-66.1v0.5c1-3.2,1.5-6,1.5-8.3
		c0-1-0.8-1.5-2.4-1.5c-2.3,0-4.7,0.3-7.3,1c-1.3,0-2.7,0.1-4.1,0.2c-1.5,0.2-2.5,0.2-3.2,0.2c-0.7,0-1.3,0.1-1.9,0.2
		c-0.7,0.2-1.3,0.2-1.9,0.2c-15.2,0-22.8-7.1-22.8-21.4c0-14.6,9.1-21.9,27.2-21.9c0.6,0,1.8,0,3.4,0c1.6,0,3.1,0.2,4.4,0.5
		c0.3,0,0.6,0.1,0.7,0.2c0.2,0.2,0.6,0.2,1.2,0.2l16.5,2.4c2.3,0.3,4.5,0.5,6.6,0.5c2.1,0,4.4,0,7,0c2.3,0,5.2-0.1,8.7-0.2
		c3.6-0.2,7.9-0.6,13.1-1.2c5.2-0.6,9.8-1.1,13.9-1.5c4-0.3,7.5-0.5,10.4-0.5c18.1,0,27.2,7.1,27.2,21.4c0,14.3-7.6,21.4-22.8,21.4
		c-4.5,0-7.5-0.3-8.7-1c-1-0.3-1.9-0.5-2.7-0.5c-0.8,0-1.5-0.2-2.2-0.5c-0.7,0-1.1-0.2-1.5-0.5c-2.3,0-5.8,6.5-10.7,19.4
		l-62.7,156.5c-13.3,34-26.7,59.8-40.3,77.3c-22,28.2-50.1,42.3-84.1,42.3c-21.1,0-38.4-5.2-52-15.6c-14.9-11-22.4-24.1-22.4-39.4
		c0-11.3,3.5-20.7,10.4-27.9s16.1-10.9,27.5-10.9c9.4,0,17.1,2.7,23.1,8c6,5.3,9,12.1,9,20.2c0,9.1-3.1,15.7-9.2,19.9
		c1.9,1.3,4,2,6.1,2.2c2.1,0.2,4.8,0.2,8,0.2c14.3,0,27-5.5,38.4-16.5c11.7-10.7,17.5-22.7,17.5-36c0-6.8-4.1-20.2-12.2-40.3
		l-50.5-127.8c-0.3-1.3-0.8-2.6-1.5-3.9c-0.7-1.3-1.3-2.8-1.9-4.6c-0.7-1.8-1.3-4-1.9-6.6c-4.5-11-8.1-16.5-10.7-16.5
		c-0.7,0-1.5,0.1-2.7,0.2c-1.1,0.2-2.5,0.4-4.1,0.7c-2.6,0.3-5.6,0.7-9,1.2c-3.4,0.5-4.8,0.7-4.1,0.7c-15.6,0-23.3-7.1-23.3-21.4
		c0-14.6,9.7-21.9,29.2-21.9c2.3,0,4.5,0,6.8,0c2.3,0,3.9,0.2,4.9,0.5c2.9,0.3,5.7,0.7,8.5,1.2c2.7,0.5,5.6,0.9,8.5,1.2h5.3
		c1.6,0.3,2.9,0.5,3.9,0.5c5.5,0,11.1-0.2,16.8-0.5c5.7-0.3,11.6-0.8,17.7-1.5c9.7-1,16.4-1.5,19.9-1.5c18.1,0,27.2,7.1,27.2,21.4
		c0,14.6-8.4,21.9-25.3,21.9c-1.3,0-2.8-0.1-4.6-0.2c-1.8-0.2-3.5-0.4-5.1-0.7c-1,0-2-0.1-3.2-0.2c-1.1-0.2-2.2-0.2-3.2-0.2
		c0,1.9,0.5,3.9,1.5,5.8L2100.8,578.7z"/>
</g>
</svg>
